<svg width="20" height="20" viewBox="0 0 20 20" fill="none" xmlns="http://www.w3.org/2000/svg">
<path fill-rule="evenodd" clip-rule="evenodd" d="M5.33021 9.91821e-05H14.6602C18.0602 9.91821e-05 20.0002 1.9201 20.0002 5.3301V14.6701C20.0002 18.0601 18.0702 20.0001 14.6702 20.0001H5.33021C1.92021 20.0001 0.000213623 18.0601 0.000213623 14.6701V5.3301C0.000213623 1.9201 1.92021 9.91821e-05 5.33021 9.91821e-05ZM10.8202 10.8301H13.6602C14.1202 10.8201 14.4902 10.4501 14.4902 9.9901C14.4902 9.5301 14.1202 9.1601 13.6602 9.1601H10.8202V6.3401C10.8202 5.8801 10.4502 5.5101 9.99021 5.5101C9.53021 5.5101 9.16021 5.8801 9.16021 6.3401V9.1601H6.33021C6.11021 9.1601 5.90021 9.2501 5.74021 9.4001C5.59021 9.5601 5.50021 9.7691 5.50021 9.9901C5.50021 10.4501 5.87021 10.8201 6.33021 10.8301H9.16021V13.6601C9.16021 14.1201 9.53021 14.4901 9.99021 14.4901C10.4502 14.4901 10.8202 14.1201 10.8202 13.6601V10.8301Z" fill="white"/>
</svg>
